<svg xmlns="http://www.w3.org/2000/svg" xmlns:xlink="http://www.w3.org/1999/xlink" width="119.931" height="79.681" viewBox="0 0 119.931 79.681">
  <defs>
    <linearGradient id="linear-gradient" x1="0.5" x2="0.5" y2="1" gradientUnits="objectBoundingBox">
      <stop offset="0" stop-color="#fbc517"/>
      <stop offset="1" stop-color="#e51c21"/>
    </linearGradient>
    <clipPath id="clip-path">
      <rect id="Rectangle_6" data-name="Rectangle 6" width="117.431" height="18.181" fill="#fff"/>
    </clipPath>
  </defs>
  <g id="Group_8" data-name="Group 8" transform="translate(-32.284 -31.5)">
    <g id="Group_5" data-name="Group 5" transform="translate(34.285 32)">
      <path id="Path_3" data-name="Path 3" d="M29.47.272h-.01l0,.01L.884,57.116H15.7L36.87,15.009V.272Z" transform="translate(-0.395 -0.121)" fill="#fff"/>
      <path id="Path_4" data-name="Path 4" d="M73.814.272V15.009h0L94.99,57.116H109.8L81.22.282l0-.01H73.814Z" transform="translate(-32.999 -0.121)" fill="#fff"/>
      <path id="Union_1" data-name="Union 1" d="M93.086,57a23.075,23.075,0,0,1-9.373-2.2c-4.094-1.825-7.228-5.352-8.892-6.327-.924-.541-1.86-1.044-2.831-1.5A27.825,27.825,0,0,0,55.505,44.84c-6.45,1.153-11.614,5.121-18.012,6.51a26.6,26.6,0,0,1-20.069-3.741A19.085,19.085,0,0,0,27.9,49.471c1.67-.148,3.641-.79,3.72-2.571a2.175,2.175,0,0,0-.2-.99,5.313,5.313,0,0,0-2.636-2.326,29,29,0,0,0-19-2.592A28.3,28.3,0,0,0,0,45.057a17.952,17.952,0,0,1,11.023-6.864c5.188-1.1,10.631-.387,15.749.978,1.466.391,2.939.837,4.419,1.259,3.983,1.136,8.009,2.1,12.035,1.376,1.229-.222,2.611-.759,2.734-2.07a2.045,2.045,0,0,0-.67-1.636,5.286,5.286,0,0,0-3.507-1.141c-2.8-.161-5.625.067-8.4-.322-.057-.008-.115-.018-.172-.027-2.716-.411-5.392-1.539-6.9-3.722a18.172,18.172,0,0,0,7.829,1.966,9.068,9.068,0,0,0,4.07-.956c4.407-2.279,9.68-2.684,14.64-1.968a62.022,62.022,0,0,1,14.294,4.35c1.284.52,2.9,1.018,3.908-.05a1.988,1.988,0,0,0,.467-1.786,4.884,4.884,0,0,0-2.557-2.9c-.275-.172-.555-.337-.837-.5A30.445,30.445,0,0,0,48.6,27.322a56.343,56.343,0,0,1,11.554-1.314,39.648,39.648,0,0,1,4.882.292,28.5,28.5,0,0,1,12.65,5.235,22.778,22.778,0,0,1,1.851,1.411,26.04,26.04,0,0,1,2.318,2.247c2.008,2.186,3.447,6.026,6.02,7.584,1.782.941,3.2,1.287,6.123.875,6.8-.958,10.3-9.266,10.506-14.827A15.291,15.291,0,0,0,99.842,17.39,9.148,9.148,0,0,0,93.4,14.8H60.478L52.937,0H92.514a22.634,22.634,0,0,1,4.027.4C97.33.562,98.229.757,99,.99c9.743,2.955,18.393,13.021,18.435,27.288V28.5q0,.875-.049,1.772c-.394,7.557-2.54,11.928-6.265,17.248l-1.182,1.342c-.476.467-.973.972-1.492,1.48a1.479,1.479,0,0,1-.214.248c-.274.26-.571.525-.881.789a15.985,15.985,0,0,1-2.587,1.956c-.5.336-.986.634-1.42.872A20.972,20.972,0,0,1,93.2,57Z" transform="translate(0 0)" fill="url(#linear-gradient)"/>
      <path id="Union_1_-_Outline" data-name="Union 1 - Outline" d="M93.2,57.5h-.119a23.491,23.491,0,0,1-9.576-2.247,29.212,29.212,0,0,1-6.825-4.69A18.638,18.638,0,0,0,74.569,48.9c-.977-.573-1.89-1.056-2.79-1.475a27.267,27.267,0,0,0-11.456-2.509,26.963,26.963,0,0,0-4.73.416,39.516,39.516,0,0,0-9.252,3.286,43.83,43.83,0,0,1-8.742,3.22,26.44,26.44,0,0,1-5.6.594,27.018,27.018,0,0,1-14.853-4.408l.514-.856a17.568,17.568,0,0,0,8.286,1.888c.634,0,1.276-.028,1.906-.084.957-.085,3.192-.458,3.264-2.1a1.679,1.679,0,0,0-.156-.761,4.928,4.928,0,0,0-2.411-2.088,28.313,28.313,0,0,0-12.993-3.122A27.645,27.645,0,0,0,.275,45.475l-2.15,1.415,1.464-2.117a16.075,16.075,0,0,1,4.933-4.552,20.682,20.682,0,0,1,6.4-2.517,26.429,26.429,0,0,1,5.468-.55A40.717,40.717,0,0,1,26.9,38.688c.99.264,2,.558,2.976.842.476.138.967.281,1.451.419a33.647,33.647,0,0,0,8.991,1.609,15.9,15.9,0,0,0,2.818-.244c1.467-.265,2.249-.811,2.325-1.625a1.542,1.542,0,0,0-.519-1.229,4.876,4.876,0,0,0-3.189-1c-1.069-.062-2.167-.066-3.228-.07a38.625,38.625,0,0,1-5.212-.257l-.121-.019-.059-.01a13.393,13.393,0,0,1-4.052-1.245A8.4,8.4,0,0,1,25.9,33.171l-1.068-1.546,1.7.81a18.025,18.025,0,0,0,7.429,1.918h.176a8.579,8.579,0,0,0,3.848-.9,22.623,22.623,0,0,1,10.49-2.346,31.27,31.27,0,0,1,4.451.327,63.213,63.213,0,0,1,14.41,4.381,6.189,6.189,0,0,0,2.141.545,1.58,1.58,0,0,0,1.216-.475,1.488,1.488,0,0,0,.341-1.338c-.229-1.076-1.1-1.809-2.332-2.577-.236-.147-.49-.3-.823-.491a30.182,30.182,0,0,0-14.931-3.983,28.312,28.312,0,0,0-4.27.322l-.179-.984a56.364,56.364,0,0,1,11.657-1.325,40.347,40.347,0,0,1,4.943.3,28.926,28.926,0,0,1,12.872,5.319,23.416,23.416,0,0,1,1.892,1.442,26.363,26.363,0,0,1,2.363,2.29,22.4,22.4,0,0,1,2.219,3.109c1.084,1.71,2.2,3.479,3.679,4.378a7.309,7.309,0,0,0,3.729.981,15,15,0,0,0,2.078-.167c2.029-.286,4.955-1.464,7.369-5.451a19.379,19.379,0,0,0,2.707-8.9,14.2,14.2,0,0,0-1.19-6.249,15.626,15.626,0,0,0-3.32-4.813A8.7,8.7,0,0,0,93.4,15.3H60.172L52.121-.5H92.529a23.328,23.328,0,0,1,4.11.413c.731.147,1.676.348,2.5.6A25.653,25.653,0,0,1,112.256,10.1a30.854,30.854,0,0,1,5.675,18.178V28.5c0,.591-.018,1.2-.05,1.8a30.184,30.184,0,0,1-1.917,9.618,36.745,36.745,0,0,1-4.438,7.891l-.016.023-1.226,1.389c-.233.228-.467.462-.715.709s-.49.489-.744.738a2.026,2.026,0,0,1-.254.287c-.273.259-.575.529-.9.8a16.441,16.441,0,0,1-2.651,2c-.521.348-1.007.646-1.446.887A21.4,21.4,0,0,1,93.2,57.5ZM60.323,43.916a28.274,28.274,0,0,1,11.878,2.6c.928.433,1.868.93,2.873,1.519A18.661,18.661,0,0,1,77.333,49.8a28.4,28.4,0,0,0,6.584,4.538,22.516,22.516,0,0,0,9.171,2.16H93.2a20.431,20.431,0,0,0,9.9-2.735c.416-.228.881-.513,1.382-.849l.025-.016a15.449,15.449,0,0,0,2.5-1.9l.011-.01c.309-.263.6-.522.861-.771a1,1,0,0,0,.144-.165l.028-.042.036-.035c.262-.257.52-.515.77-.764s.477-.476.708-.7l1.151-1.307c3.7-5.284,5.773-9.558,6.159-16.965.031-.586.047-1.174.049-1.747v-.218a29.86,29.86,0,0,0-5.485-17.593,24.648,24.648,0,0,0-12.6-9.217c-.784-.238-1.7-.432-2.409-.575A22.108,22.108,0,0,0,92.506.5H53.753l7.032,13.8H93.4a9.863,9.863,0,0,1,3.664.7,9.332,9.332,0,0,1,3.127,2.036,16.636,16.636,0,0,1,3.534,5.124A15.192,15.192,0,0,1,105,28.844a20.425,20.425,0,0,1-2.851,9.38c-1.445,2.386-4.02,5.351-8.085,5.924a15.974,15.974,0,0,1-2.217.176,8.326,8.326,0,0,1-4.209-1.1l-.026-.014c-1.681-1.019-2.869-2.893-4.018-4.706a21.37,21.37,0,0,0-2.111-2.968,25.374,25.374,0,0,0-2.274-2.2,22.415,22.415,0,0,0-1.811-1.38,34.665,34.665,0,0,0-5.914-3.338A23.5,23.5,0,0,0,64.97,26.8a39.344,39.344,0,0,0-4.821-.288c-1.271,0-2.569.055-3.905.167a31.323,31.323,0,0,1,4.7.881,30.8,30.8,0,0,1,7.424,3.057c.344.2.606.355.852.509a5.326,5.326,0,0,1,2.781,3.217,2.487,2.487,0,0,1-.593,2.233,2.563,2.563,0,0,1-1.942.788,7.069,7.069,0,0,1-2.517-.618,62.355,62.355,0,0,0-14.178-4.319,30.268,30.268,0,0,0-4.308-.317A21.637,21.637,0,0,0,38.437,34.34a9.566,9.566,0,0,1-4.292,1.012l-.192,0a16.821,16.821,0,0,1-5.5-1.035,11.361,11.361,0,0,0,4.828,1.8l.07.011.1.015a37.874,37.874,0,0,0,5.078.247c1.075,0,2.186.008,3.282.071a5.739,5.739,0,0,1,3.826,1.28,2.532,2.532,0,0,1,.821,2.042c-.084.9-.7,2.074-3.143,2.516a16.9,16.9,0,0,1-3,.26,34.5,34.5,0,0,1-9.266-1.647c-.487-.139-.98-.282-1.456-.421-.971-.282-1.975-.574-2.954-.836a39.74,39.74,0,0,0-10.255-1.5,25.428,25.428,0,0,0-5.261.528,19.67,19.67,0,0,0-6.085,2.393,16.442,16.442,0,0,0-2.7,2.035,28.57,28.57,0,0,1,13.212-3.2A29.317,29.317,0,0,1,29.01,43.141,5.765,5.765,0,0,1,31.872,45.7a2.683,2.683,0,0,1,.245,1.218c-.076,1.708-1.6,2.819-4.175,3.047-.66.058-1.331.088-1.994.088a21.993,21.993,0,0,1-2.914-.19A26.529,26.529,0,0,0,32,51.433a25.438,25.438,0,0,0,5.388-.571,43.069,43.069,0,0,0,8.542-3.154,40.278,40.278,0,0,1,9.488-3.359A27.965,27.965,0,0,1,60.323,43.916Z" transform="translate(0 0)" fill="rgba(0,0,0,0)"/>
    </g>
    <g id="Group_7" data-name="Group 7" transform="translate(32.284 93)">
      <g id="Group_6" data-name="Group 6" transform="translate(0 0)" clip-path="url(#clip-path)">
        <path id="Path_7" data-name="Path 7" d="M0,17.647a.723.723,0,0,0,.5-.416,7.506,7.506,0,0,0,.354-.8L5.377,4c.114-.276.216-.533.306-.767a1.752,1.752,0,0,0,.134-.607.524.524,0,0,0-.171-.448,1.3,1.3,0,0,0-.366-.191V1.415h4.13V1.99a1.8,1.8,0,0,0-.342.176.519.519,0,0,0-.171.463,1.6,1.6,0,0,0,.085.511c.057.171.143.394.257.671l5.083,13a1.062,1.062,0,0,0,.33.511,4.774,4.774,0,0,0,.476.32v.575h-4.3v-.575a.48.48,0,0,0,.244-.1.322.322,0,0,0,.146-.288,2.468,2.468,0,0,0-.2-.831l-.929-2.365H4.13l-.88,2.269a3.29,3.29,0,0,0-.244.958q0,.351.464.352v.575H0ZM9.214,11.7,7.161,5.76,4.863,11.7Z" transform="translate(0 -0.648)" fill="#fff"/>
        <path id="Path_8" data-name="Path 8" d="M33.242,17.647q.464,0,.464-.575V2.565q0-.575-.464-.575V1.415h4.179V1.99c-.13,0-.2.107-.2.319a1.988,1.988,0,0,0,.489.9l7.014,9.522V2.565q0-.575-.635-.575V1.415h3.69V1.99q-.465,0-.465.575V17.072q0,.575.465.575v.575h-3.96v-.575q.318,0,.318-.288a1.573,1.573,0,0,0-.391-.735L36.3,6.464V17.072a.5.5,0,0,0,.562.575v.575H33.242Z" transform="translate(-15.231 -0.648)" fill="#fff"/>
        <path id="Path_9" data-name="Path 9" d="M67.974,17.647q.635,0,.636-.575V2.565q0-.575-.636-.575V1.415h4.057V1.99q-.636,0-.635.575V17.072q0,.575.635.575v.575H67.974Z" transform="translate(-31.144 -0.648)" fill="#fff"/>
        <path id="Path_10" data-name="Path 10" d="M90.7,1.415a6.161,6.161,0,0,1,2.505.511,5.443,5.443,0,0,1,2.016,1.55A7.618,7.618,0,0,1,96.567,6.1a12.647,12.647,0,0,1,.489,3.722,12.65,12.65,0,0,1-.489,3.723,7.607,7.607,0,0,1-1.344,2.62,5.42,5.42,0,0,1-2.016,1.55,6.144,6.144,0,0,1-2.505.511H82.588v-.575a.5.5,0,0,0,.562-.575V2.565a.5.5,0,0,0-.562-.575V1.415Zm-.978,14.059a7.021,7.021,0,0,0,2-.255,2.934,2.934,0,0,0,1.418-.911,4.266,4.266,0,0,0,.843-1.741,11.212,11.212,0,0,0,.281-2.748,11.217,11.217,0,0,0-.281-2.748,4.275,4.275,0,0,0-.843-1.741,2.94,2.94,0,0,0-1.418-.91,7.02,7.02,0,0,0-2-.256H85.937V15.474Z" transform="translate(-37.839 -0.648)" fill="#fff"/>
        <path id="Path_11" data-name="Path 11" d="M123.783,1.415a7.755,7.755,0,0,1,2.126.272,4.246,4.246,0,0,1,1.637.863A3.808,3.808,0,0,1,128.6,4.084a6.43,6.43,0,0,1,.366,2.317,4.843,4.843,0,0,1-.953,3.227,4.681,4.681,0,0,1-2.567,1.5L128.7,17.2a.7.7,0,0,0,.4.383,1.59,1.59,0,0,0,.428.064v.575h-4.57v-.575a.725.725,0,0,0,.379-.1.291.291,0,0,0,.159-.256.89.89,0,0,0-.1-.367q-.1-.207-.293-.559l-2.689-4.985h-3.494v5.688a.551.551,0,0,0,.158.431.864.864,0,0,0,.574.144v.575h-4.228v-.575q.709,0,.709-.575V2.566q0-.575-.709-.575V1.415Zm-.636,7.477a5.154,5.154,0,0,0,1.466-.176,2.3,2.3,0,0,0,.929-.5,1.819,1.819,0,0,0,.488-.751,3.1,3.1,0,0,0,0-1.884,1.819,1.819,0,0,0-.488-.751,2.321,2.321,0,0,0-.929-.5,5.215,5.215,0,0,0-1.466-.176h-4.228V8.892Z" transform="translate(-52.884 -0.648)" fill="#fff"/>
        <path id="Path_12" data-name="Path 12" d="M148.126,17.647q.635,0,.636-.575V2.565q0-.575-.636-.575V1.415h4.057V1.99q-.636,0-.635.575V17.072q0,.575.635.575v.575h-4.057Z" transform="translate(-67.867 -0.648)" fill="#fff"/>
        <path id="Path_13" data-name="Path 13" d="M175.616,1.991a.737.737,0,0,0-.709.463,7.347,7.347,0,0,0-.318.751l-4.326,12.429q-.219.64-.366,1.022a1.808,1.808,0,0,0-.147.543.464.464,0,0,0,.061.255,1.1,1.1,0,0,0,.159.192v.574h-3.739v-.574a.475.475,0,0,0,.22-.448,2.508,2.508,0,0,0-.183-.655q-.184-.495-.452-1.23l-4.4-12.493a1.028,1.028,0,0,0-.342-.511,2.875,2.875,0,0,0-.635-.319V1.416h4.374v.575a.566.566,0,0,0-.329.112.5.5,0,0,0-.159.431,2.621,2.621,0,0,0,.208.895q.207.544.5,1.343l3.128,8.787,3.055-8.66q.294-.831.55-1.486a3.054,3.054,0,0,0,.257-.911q0-.51-.684-.511V1.416h4.277Z" transform="translate(-73.509 -0.649)" fill="#fff"/>
        <path id="Path_14" data-name="Path 14" d="M205.439,4.218a.655.655,0,0,0-.207-.528,1.137,1.137,0,0,0-.721-.176h-7.918V7.477h4.79a1.382,1.382,0,0,0,.757-.176q.268-.176.269-.911h.44v4.985h-.44c0-.49-.09-.8-.269-.943a1.217,1.217,0,0,0-.757-.207h-4.79v4.409h8.163a.822.822,0,0,0,.6-.224.8.8,0,0,0,.232-.607h.44v4.377h-.44q0-.48-.232-.543a2.3,2.3,0,0,0-.6-.064H193.366V17a.408.408,0,0,0,.306-.144.613.613,0,0,0,.134-.431V1.918a.615.615,0,0,0-.134-.431.41.41,0,0,0-.306-.144V.767H204.51a1,1,0,0,0,.721-.208.757.757,0,0,0,.207-.56h.44V4.218Z" transform="translate(-88.595 0)" fill="#fff"/>
      </g>
    </g>
  </g>
</svg>
